<svg xmlns="http://www.w3.org/2000/svg" xmlns:xlink="http://www.w3.org/1999/xlink" viewBox="0 0 32 32"><defs><path id="a" d="M0 0h32v32h-32z"/></defs><clipPath id="b"><use xlink:href="#a" overflow="visible"/></clipPath><g clip-path="url(#b)"><defs><path id="c" d="M0 0h32v32h-32z"/></defs><clipPath id="d"><use xlink:href="#c" overflow="visible"/></clipPath><path d="M19.584 10.981c-.254-.258-.523-.482-.805-.688l-2.812 2.811-.082.123c.301.168.582.373.832.623l1.437 1.438c1.578 1.582 1.582 4.158 0 5.738l-5.742 5.742c-.762.758-1.781 1.178-2.871 1.176-1.086.002-2.105-.42-2.867-1.176l-1.438-1.437c-1.578-1.582-1.578-4.159 0-5.739l1.301-1.3c-.668-1.534-.969-3.182-.914-4.827l-3.258 3.256c-3.156 3.158-3.152 8.322 0 11.477l1.438 1.439c1.578 1.58 3.66 2.367 5.738 2.367 2.086 0 4.164-.787 5.742-2.367l5.742-5.744c3.153-3.154 3.153-8.318-.004-11.475l-1.437-1.437zM22.459 0c-2.082 0-4.164.791-5.738 2.369l-5.746 5.742c-3.157 3.159-3.153 8.323 0 11.477l1.437 1.437c.258.258.547.459.824.674l2.797-2.795.082-.127c-.297-.173-.582-.371-.832-.619l-1.437-1.437c-1.578-1.582-1.578-4.158 0-5.738l5.742-5.743c.762-.757 1.781-1.179 2.871-1.179 1.086 0 2.105.422 2.867 1.177l1.438 1.44c1.578 1.582 1.582 4.158 0 5.738l-1.301 1.301c.668 1.533.969 3.183.914 4.826l3.258-3.26c3.152-3.154 3.152-8.318-.004-11.474l-1.438-1.438c-1.574-1.58-3.655-2.371-5.734-2.371" clip-path="url(#d)"/></g></svg>
