<svg xmlns="http://www.w3.org/2000/svg" width="28" height="21" viewBox="0 0 28 21">
  <g fill-rule="evenodd">
    <path d="M2.5,0 L25.5,0 C26.8807119,-2.53632657e-16 28,1.11928813 28,2.5 L28,18.5 C28,19.8807119 26.8807119,21 25.5,21 L2.5,21 C1.11928813,21 1.69088438e-16,19.8807119 0,18.5 L0,2.5 C-1.69088438e-16,1.11928813 1.11928813,2.53632657e-16 2.5,0 Z M2.5,1.5 C1.94771525,1.5 1.5,1.94771525 1.5,2.5 L1.5,18.5 C1.5,19.0522847 1.94771525,19.5 2.5,19.5 L25.5,19.5 C26.0522847,19.5 26.5,19.0522847 26.5,18.5 L26.5,2.5 C26.5,1.94771525 26.0522847,1.5 25.5,1.5 L2.5,1.5 Z"/>
    <polygon points="1.5 4.434 14 12.948 26.5 4.434 26.5 3.147 14 11.726 1.5 3.147"/>
  </g>
</svg>
