<?xml version="1.0" encoding="UTF-8"?>
<svg width="16px" height="16px" viewBox="0 0 16 16" version="1.1" xmlns="http://www.w3.org/2000/svg" xmlns:xlink="http://www.w3.org/1999/xlink">
    <!-- Generator: Sketch 64 (93537) - https://sketch.com -->
    <title>Shape</title>
    <desc>Created with Sketch.</desc>
    <g id="Page-1" stroke="none" stroke-width="1" fill="none" fill-rule="evenodd">
        <g id="Group" transform="translate(0.000000, -5.000000)" fill="#000000" fill-rule="nonzero">
            <path d="M15.36,13.038 C15.36,11.328 13.98,9.918 12.27,9.918 C10.56,9.918 9.15,11.328 9.15,13.038 C9.15,14.748 10.56,16.128 12.27,16.128 C13.98,16.128 15.36,14.748 15.36,13.038 Z M5.55,11.868 L8.31,11.868 L8.31,14.628 L5.55,14.628 L5.55,11.868 Z M0,11.868 L2.76,11.868 L2.76,14.628 L0,14.628 L0,11.868 Z M11.1,6.288 L13.86,6.288 L13.86,9.078 L11.1,9.078 L11.1,6.288 Z M11.1,0.768 L13.86,0.768 L13.86,3.528 L11.1,3.528 L11.1,0.768 Z" id="Shape" transform="translate(10.000000, 10.768000) scale(-1, 1) rotate(-180.000000) translate(-10.000000, -10.768000) "></path>
        </g>
    </g>
</svg>