<?xml version="1.0" encoding="UTF-8"?>
<svg width="20px" height="16px" viewBox="0 0 20 16" version="1.1" xmlns="http://www.w3.org/2000/svg" xmlns:xlink="http://www.w3.org/1999/xlink">
    <!-- Generator: Sketch 64 (93537) - https://sketch.com -->
    <title>Shape</title>
    <desc>Created with Sketch.</desc>
    <g id="Page-1" stroke="none" stroke-width="1" fill="none" fill-rule="evenodd">
        <g id="Group" transform="translate(0.000000, -5.000000)" fill="#000000" fill-rule="nonzero">
            <path d="M16.610812,7.2988908 L16.610812,1.54829851 C16.610812,1.33292053 16.53184,1.1462596 16.3738962,0.988315744 C16.2159523,0.830371886 16.0364707,0.758579223 15.8354512,0.772937756 L11.2263623,0.772937756 L11.2263623,5.38202671 L8.14645703,5.38202671 L8.14645703,0.772937756 L3.53736808,0.772937756 C3.32199009,0.772937756 3.14250844,0.844730419 2.99892311,0.988315744 C2.85533778,1.13190107 2.77636586,1.31856199 2.76200732,1.54829851 L2.76200732,7.2988908 C2.76200732,7.31324934 2.76200732,7.32760787 2.76200732,7.3419664 C2.76200732,7.35632493 2.76200732,7.37068347 2.76200732,7.385042 L9.67564075,13.0710209 L16.5892742,7.385042 C16.6036327,7.37068347 16.610812,7.3419664 16.610812,7.2988908 Z M19.281499,8.13886496 L18.5492139,7.25581521 C18.4774212,7.18402254 18.39127,7.14094695 18.2907603,7.12658841 L18.2476847,7.12658841 C18.147175,7.12658841 18.0610238,7.14812621 17.9892311,7.19120181 L9.67564075,14.126373 L1.3620504,7.19120181 C1.26154067,7.13376768 1.16821021,7.10505061 1.08205901,7.10505061 C0.981549286,7.13376768 0.89539809,7.18402254 0.823605428,7.25581521 L0.0697824682,8.13886496 C0.012348338,8.21065762 -0.00918946084,8.30398808 0.00516907172,8.41885634 C0.0195276043,8.5337246 0.062603202,8.6198758 0.134395865,8.67730993 L8.7710532,15.8709347 C9.02950678,16.0863127 9.33103597,16.1940017 9.67564075,16.1940017 C10.0202455,16.1940017 10.328954,16.0863127 10.6017661,15.8709347 L13.5309067,13.4156257 L13.5309067,15.7632457 C13.5309067,15.878114 13.5668031,15.9714445 13.6385957,16.0432371 C13.7103884,16.1150298 13.8037189,16.1509261 13.9185871,16.1509261 L16.2231316,16.1509261 C16.3379999,16.1509261 16.4313303,16.1150298 16.503123,16.0432371 C16.5749156,15.9714445 16.610812,15.878114 16.610812,15.7632457 L16.610812,10.8741654 L19.2384234,8.67730993 C19.3102161,8.60551727 19.3532917,8.51936607 19.3676502,8.41885634 C19.3820088,8.31834661 19.3532917,8.22501615 19.281499,8.13886496 Z" id="Shape" transform="translate(10.000862, 10.771143) scale(-1, 1) rotate(-180.000000) translate(-10.000862, -10.771143) "></path>
        </g>
    </g>
</svg>