<?xml version="1.0" encoding="UTF-8"?>
<svg width="30px" height="24px" viewBox="0 0 30 24" version="1.1" xmlns="http://www.w3.org/2000/svg" xmlns:xlink="http://www.w3.org/1999/xlink">
    <!-- Generator: Sketch 64 (93537) - https://sketch.com -->
    <title>Shape</title>
    <desc>Created with Sketch.</desc>
    <g id="Page-1" stroke="none" stroke-width="1" fill="none" fill-rule="evenodd">
        <g id="Group" transform="translate(0.000000, -6.000000)" fill="#000000" fill-rule="nonzero">
            <path d="M15,15 C12.51,15 10.5,12.99 10.5,10.5 C10.5,8.01 12.51,6 15,6 C17.49,6 19.5,8.01 19.5,10.5 C19.5,12.99 17.49,15 15,15 Z M27,19.5 L23.4,19.5 C22.92,19.5 22.38,19.89 22.23,20.37 L21.3,23.16 C21.12,23.61 20.61,24 20.1,24 L9.9,24 C9.42,24 8.88,23.61 8.73,23.16 L7.8,20.34 C7.62,19.89 7.11,19.5 6.6,19.5 L3,19.5 C1.35,19.5 0,18.15 0,16.5 L0,3 C0,1.35 1.35,0 3,0 L27,0 C28.65,0 30,1.35 30,3 L30,16.5 C30,18.15 28.65,19.5 27,19.5 Z M15,3 C10.86,3 7.5,6.36 7.5,10.5 C7.5,14.64 10.86,18 15,18 C19.14,18 22.5,14.64 22.5,10.5 C22.5,6.36 19.14,3 15,3 Z M26.4,14.4 C25.5857143,14.4 24.9,15.0857143 24.9,15.9 C24.9,16.7142857 25.5857143,17.4 26.4,17.4 C27.2142857,17.4 27.9,16.7142857 27.9,15.9 C27.9,15.0857143 27.2142857,14.4 26.4,14.4 Z" id="Shape" transform="translate(15.000000, 15.000000) scale(-1, 1) rotate(-180.000000) translate(-15.000000, -15.000000) "></path>
        </g>
    </g>
</svg>