<?xml version="1.0" encoding="UTF-8"?>
<svg width="173px" height="173px" viewBox="0 0 173 173" version="1.1" xmlns="http://www.w3.org/2000/svg" xmlns:xlink="http://www.w3.org/1999/xlink">
    <!-- Generator: Sketch 63.1 (92452) - https://sketch.com -->
    <title>twitter</title>
    <desc>Created with Sketch.</desc>
    <g id="Page-1" stroke="none" stroke-width="1" fill="none" fill-rule="evenodd">
        <g id="twitter" fill-rule="nonzero">
            <rect id="Rectangle" fill="#E84439" x="0" y="0" width="172.76" height="172.76"></rect>
            <g id="email" transform="translate(36.000000, 53.000000)" fill="#FFFFFF">
                <path d="M93.5,68 L8.5,68 C3.81225,68 0,64.18775 0,59.5 L0,8.5 C0,3.81225 3.81225,0 8.5,0 L93.5,0 C98.18775,0 102,3.81225 102,8.5 L102,59.5 C102,64.18775 98.18775,68 93.5,68 Z M8.5,4.25 C6.156125,4.25 4.25,6.156125 4.25,8.5 L4.25,59.5 C4.25,61.843875 6.156125,63.75 8.5,63.75 L93.5,63.75 C95.843875,63.75 97.75,61.843875 97.75,59.5 L97.75,8.5 C97.75,6.156125 95.843875,4.25 93.5,4.25 L8.5,4.25 Z" id="Shape"></path>
                <path d="M51.5,45 L13.9783322,20.9056393 C12.9859105,20.2667174 12.7014448,18.954911 13.3430967,17.9699948 C13.9847487,16.9850787 15.3086906,16.704887 16.3011123,17.3395636 L51.5,39.943814 L86.6988877,17.3395636 C87.6913094,16.704887 89.0152513,16.9850787 89.6569033,17.9699948 C90.2985552,18.954911 90.0140895,20.2667174 89.0216678,20.9056393 L51.5,45 Z" id="Path"></path>
                <path d="M13.0939791,55 C12.4186857,55 11.7538458,54.6685237 11.3524331,54.0544427 C10.7105908,53.0770126 10.9698365,51.7596069 11.9315546,51.1072786 L30.7477779,38.3581909 C31.7094959,37.7058626 33.0078153,37.9693437 33.6475669,38.9467738 C34.2894092,39.9242038 34.0301635,41.2416096 33.0684454,41.8939379 L14.2522221,54.6430255 C13.8947139,54.8831334 13.4912104,55 13.0939791,55 Z" id="Path"></path>
                <path d="M88.9060209,55 C88.5087896,55 88.1052861,54.8831334 87.7477779,54.6430255 L68.9315546,41.8939379 C67.9698365,41.2416096 67.7105908,39.9242038 68.3524331,38.9467738 C68.9921847,37.9693437 70.2884134,37.7058626 71.2522221,38.3581909 L90.0684454,51.1072786 C91.0301635,51.7596069 91.2894092,53.0770126 90.6475669,54.0544427 C90.2461542,54.6685237 89.5813143,55 88.9060209,55 Z" id="Path"></path>
            </g>
        </g>
    </g>
</svg>