<svg xmlns="http://www.w3.org/2000/svg" xmlns:xlink="http://www.w3.org/1999/xlink" viewBox="0 0 303.5 57.1" enable-background="new 0 0 303.5 57.1"><style type="text/css">.st0{fill:#FCE3DD;} .st1{fill:#F8C1B2;} .st2{fill:#A21F25;} .st3{fill:#F6B0A1;} .st4{fill:#E9443A;} .st5{fill:#F0836E;} .st6{fill:#453E43;} .st7{clip-path:url(#SVGID_2_);fill:#453E43;}</style><path class="st0" d="M0 0h28.3v28.3h-28.3z"/><path class="st1" d="M56.6 0h28.3v28.3h-28.3z"/><path class="st2" d="M0 28.3h28.3v28.3h-28.3z"/><path class="st3" d="M28.3 0c15.7 0 28.3 12.7 28.3 28.3h-28.3v-28.3z"/><path class="st4" d="M28.3 56.6c15.7 0 28.3-12.6 28.3-28.3h-28.3v28.3z"/><path class="st5" d="M84.9 56.6c-15.6 0-28.3-12.7-28.3-28.3h28.3v28.3z"/><path class="st6" d="M111.8 23c-.5.6-2.2 1.8-4.8 1.8-5.1 0-8.7-3.9-8.7-9.3 0-5.5 3.2-9.3 8.4-9.3 2.7 0 4.4 1.4 4.7 1.8v-8h5.6v24.4h-5.3v-1.4zm-4-11.8c-2.3 0-3.8 1.8-3.8 4.4 0 2.6 1.6 4.3 3.8 4.3 2.4 0 3.8-2 3.8-4.3 0-2.8-1.6-4.4-3.8-4.4M125.2 17c.1 1.6 1.7 2.9 3.8 2.9 2.1 0 3.4-1.4 3.7-1.9l3.7 2.9c-.5 1-2.9 3.9-7.5 3.9-5.8 0-9.4-4-9.4-9.3 0-5.2 3.5-9.4 8.7-9.4 5.6 0 8.7 3.6 8.7 9.7v1.1h-11.7zm.2-3.6h5.7c-.1-1.4-1.1-2.6-2.9-2.6-1.8 0-2.7 1.4-2.8 2.6"/><path class="st6" d="M147 18.4l3.4-11.7h5.8l-5.9 17.7h-6.6l-6.1-17.7h6.1zM162.9 17c.1 1.6 1.7 2.9 3.7 2.9 2.1 0 3.4-1.4 3.7-1.9l3.7 2.9c-.5 1-2.9 3.9-7.5 3.9-5.8 0-9.4-4-9.4-9.3 0-5.2 3.5-9.4 8.7-9.4 5.6 0 8.7 3.6 8.7 9.7v1.1h-11.6zm.2-3.6h5.7c-.1-1.4-1.1-2.6-2.9-2.6-1.8 0-2.7 1.4-2.8 2.6"/><path class="st6" d="M176.8 0h5.6v24.4h-5.6zM194.4 6.3c5.7 0 9.7 3.9 9.7 9.3 0 5.3-4.1 9.3-9.7 9.3s-9.6-3.9-9.6-9.3 4.1-9.3 9.6-9.3m0 13.6c2.3 0 4.1-1.8 4.1-4.4 0-2.6-1.8-4.3-4.1-4.3s-4 1.8-4 4.4c0 2.6 1.7 4.3 4 4.3M211.8 8.1c.5-.6 2.2-1.8 4.8-1.8 5.1 0 8.7 3.9 8.7 9.3 0 5.5-3.2 9.3-8.4 9.3-2.7 0-4.4-1.4-4.7-1.8v7.7h-5.6v-24.1h5.3v1.4zm4 11.8c2.3 0 3.8-1.8 3.8-4.4 0-2.6-1.6-4.3-3.8-4.3-2.4 0-3.8 2-3.8 4.3 0 2.8 1.5 4.4 3.8 4.4"/><path class="st6" d="M243.2 24.4h-5.6v-10.5c0-1.6-.8-2.5-2.1-2.5s-2.2.9-2.2 2.5v10.6h-5.6v-17.8h5.5v1.8c.6-1.1 2-2.3 4.4-2.3 2.1 0 3.6.9 4.6 2.3 1.1-1.4 2.7-2.3 5-2.3 4.1 0 6 2.6 6 6.4v11.8h-5.6v-10.5c0-1.6-.8-2.5-2.2-2.5-1.3 0-2.2 1-2.2 2.5v10.5zM261.1 17c.1 1.6 1.7 2.9 3.8 2.9 2.1 0 3.4-1.4 3.7-1.9l3.7 2.9c-.5 1-2.9 3.9-7.5 3.9-5.8 0-9.4-4-9.4-9.3 0-5.2 3.5-9.4 8.7-9.4 5.6 0 8.7 3.6 8.7 9.7v1.1h-11.7zm.2-3.6h5.7c-.1-1.4-1.1-2.6-2.9-2.6-1.8 0-2.7 1.4-2.8 2.6"/><defs><path id="SVGID_1_" d="M0 0h303.5v57.1h-303.5z"/></defs><clipPath id="SVGID_2_"><use xlink:href="#SVGID_1_" overflow="visible"/></clipPath><path class="st7" d="M285.5 13.9c0-1.7-1-2.5-2.3-2.5-1.6 0-2.4 1.1-2.4 2.5v10.6h-5.6v-17.8h5.5v1.8c.7-1 2.2-2.3 4.5-2.3 5.5 0 6.1 4.7 6.1 8.3v9.8h-5.6v-10.4zM300.3 6.7h3v4.6h-3v6.5c0 1.6 1 1.9 2.2 1.9h.9v4.8s-.7.2-2.2.2c-4.2 0-6.6-1.9-6.6-7.2v-6.2h-1.6v-4.6h1.7v-3.8h5.6v3.8z"/><path class="st6" d="M98.8 34.8c0-1.8 1.4-3.1 3.1-3.1 1.8 0 3.2 1.3 3.2 3.1s-1.4 3-3.2 3c-1.7 0-3.1-1.3-3.1-3m6.1 21.8h-5.6v-17.7h5.6v17.7zM118 46.1c0-1.7-1-2.5-2.3-2.5-1.6 0-2.4 1.1-2.4 2.5v10.6h-5.6v-17.8h5.5v1.8c.7-1 2.2-2.3 4.5-2.3 5.5 0 6.1 4.7 6.1 8.3v9.8h-5.8v-10.4zM126 34.8c0-1.8 1.4-3.1 3.1-3.1 1.8 0 3.2 1.3 3.2 3.1s-1.4 3-3.2 3c-1.8 0-3.1-1.3-3.1-3m6 21.8h-5.6v-17.7h5.6v17.7zM142.1 38.9h3v4.6h-3v6.5c0 1.6 1 1.9 2.2 1.9h.9v4.8s-.7.2-2.2.2c-4.2 0-6.6-1.9-6.6-7.2v-6.2h-1.7v-4.6h1.7v-3.8h5.6v3.8zM148.3 34.8c0-1.8 1.4-3.1 3.1-3.1 1.8 0 3.2 1.3 3.2 3.1s-1.4 3-3.2 3c-1.8 0-3.1-1.3-3.1-3m6 21.8h-5.6v-17.7h5.6v17.7zM163.4 45.2c1.6 0 2.8.4 3.4.6v-.6c0-1.1-.9-1.9-2.7-1.9-1.6 0-3.1.4-4.5 1.1l-2.1-3.8c1.9-1.2 4.3-2.2 7.2-2.2 6.1 0 7.7 3.1 7.7 7.2v11h-5l-.3-1c-.9.9-2.2 1.4-4 1.4-3.5 0-6.6-2.1-6.6-5.9 0-3.5 2.7-5.9 6.9-5.9m1.1 7.5c1.4 0 2.4-.6 2.4-1.8 0-1.2-1-1.9-2.4-1.9s-2.4.7-2.4 1.9 1.1 1.8 2.4 1.8"/><path class="st6" d="M181.8 38.9h3v4.6h-3v6.5c0 1.6 1 1.9 2.2 1.9h.9v4.8s-.7.2-2.2.2c-4.2 0-6.6-1.9-6.6-7.2v-6.2h-1.7v-4.6h1.7v-3.8h5.6v3.8zM187.9 34.8c0-1.8 1.4-3.1 3.1-3.1 1.8 0 3.2 1.3 3.2 3.1s-1.4 3-3.2 3c-1.8 0-3.1-1.3-3.1-3m6 21.8h-5.6v-17.7h5.6v17.7zM205.4 50.6l3.3-11.7h5.9l-6 17.7h-6.6l-6-17.7h6zM220.6 49.2c.1 1.6 1.7 2.9 3.8 2.9 2.1 0 3.4-1.4 3.7-1.9l3.7 2.9c-.5 1-2.9 3.9-7.5 3.9-5.8 0-9.4-4-9.4-9.3 0-5.2 3.5-9.4 8.7-9.4 5.6 0 8.7 3.6 8.7 9.7v1.1h-11.7zm.1-3.6h5.7c-.1-1.4-1.1-2.6-2.9-2.6-1.8 0-2.6 1.4-2.8 2.6M233.7 54l3.2-3.1c.9.8 2.1 1.6 3.9 1.6 1.1 0 1.6-.3 1.6-1 0-2-8.1-1.1-8.1-7.6 0-3.4 3-5.5 6.8-5.5 3.4 0 5.3 1.6 6.4 3l-3.6 2.9c-.5-.5-1.6-1.4-2.9-1.4-.8 0-1.3.3-1.3.9 0 2.2 8.2.9 8.2 7.4 0 3.6-3.2 5.8-7.2 5.8-3.6.1-6-1.6-7-3"/></svg>