<?xml version="1.0" encoding="utf-8"?>
<!-- Generator: Adobe Illustrator 23.0.2, SVG Export Plug-In . SVG Version: 6.00 Build 0)  -->
<svg version="1.1" id="Layer_1" xmlns="http://www.w3.org/2000/svg" xmlns:xlink="http://www.w3.org/1999/xlink" x="0px" y="0px"
	 viewBox="0 0 312.47 64.63" style="enable-background:new 0 0 312.47 64.63;" xml:space="preserve">
<style type="text/css">
	.st0{opacity:0.9;}
	.st1{clip-path:url(#SVGID_2_);fill:#FFFFFF;}
	.st2{opacity:0.7;}
	.st3{clip-path:url(#SVGID_4_);fill:#FFFFFF;}
	.st4{opacity:0.15;}
	.st5{clip-path:url(#SVGID_6_);fill:#FFFFFF;}
	.st6{opacity:0.6;}
	.st7{clip-path:url(#SVGID_8_);fill:#FFFFFF;}
	.st8{opacity:0.25;}
	.st9{clip-path:url(#SVGID_10_);fill:#FFFFFF;}
	.st10{opacity:0.4;}
	.st11{clip-path:url(#SVGID_12_);fill:#FFFFFF;}
	.st12{fill:#FFFFFF;}
</style>
<g class="st0">
	<g>
		<defs>
			<rect id="SVGID_1_" width="46.31" height="36.31"/>
		</defs>
		<clipPath id="SVGID_2_">
			<use xlink:href="#SVGID_1_"  style="overflow:visible;"/>
		</clipPath>
		<rect x="9" y="7" class="st1" width="28.31" height="28.31"/>
	</g>
</g>
<g class="st2">
	<g>
		<defs>
			<rect id="SVGID_3_" x="56.63" width="46.31" height="36.31"/>
		</defs>
		<clipPath id="SVGID_4_">
			<use xlink:href="#SVGID_3_"  style="overflow:visible;"/>
		</clipPath>
		<rect x="65.63" y="7" class="st3" width="28.31" height="28.31"/>
	</g>
</g>
<g class="st4">
	<g>
		<defs>
			<rect id="SVGID_5_" y="28.31" width="46.31" height="36.31"/>
		</defs>
		<clipPath id="SVGID_6_">
			<use xlink:href="#SVGID_5_"  style="overflow:visible;"/>
		</clipPath>
		<polygon class="st5" points="37.31,35.31 37.31,35.31 9,35.31 9,63.63 37.31,63.63 		"/>
	</g>
</g>
<g class="st6">
	<g>
		<defs>
			<rect id="SVGID_7_" x="28.31" width="46.31" height="36.31"/>
		</defs>
		<clipPath id="SVGID_8_">
			<use xlink:href="#SVGID_7_"  style="overflow:visible;"/>
		</clipPath>
		<path class="st7" d="M37.31,7v28.31h28.31C65.63,19.68,52.95,7,37.31,7"/>
	</g>
</g>
<g class="st8">
	<g>
		<defs>
			<rect id="SVGID_9_" x="28.31" y="28.31" width="46.31" height="36.31"/>
		</defs>
		<clipPath id="SVGID_10_">
			<use xlink:href="#SVGID_9_"  style="overflow:visible;"/>
		</clipPath>
		<path class="st9" d="M65.63,35.31H37.31v28.31C52.95,63.63,65.63,50.95,65.63,35.31"/>
	</g>
</g>
<g class="st10">
	<g>
		<defs>
			<rect id="SVGID_11_" x="56.63" y="28.31" width="46.31" height="36.31"/>
		</defs>
		<clipPath id="SVGID_12_">
			<use xlink:href="#SVGID_11_"  style="overflow:visible;"/>
		</clipPath>
		<path class="st11" d="M93.94,35.31L93.94,35.31H65.63c0,15.64,12.68,28.31,28.31,28.31V35.31z"/>
	</g>
</g>
<path class="st12" d="M116.79,18.22c-2.3,0-3.82,1.79-3.82,4.39c0,2.63,1.55,4.32,3.82,4.32c2.43,0,3.82-1.96,3.82-4.32
	C120.61,19.8,119.02,18.22,116.79,18.22 M120.81,30.04c-0.51,0.57-2.2,1.82-4.8,1.82c-5.1,0-8.68-3.85-8.68-9.29
	c0-5.51,3.24-9.32,8.38-9.32c2.7,0,4.36,1.35,4.73,1.79V7h5.64v24.42h-5.27V30.04z"/>
<path class="st12" d="M134.4,20.45h5.74c-0.07-1.42-1.11-2.63-2.87-2.63C135.41,17.81,134.53,19.2,134.4,20.45 M134.23,24.03
	c0.13,1.59,1.65,2.94,3.75,2.94c2.13,0,3.38-1.39,3.72-1.89l3.72,2.87c-0.51,1.05-2.94,3.92-7.53,3.92c-5.85,0-9.43-4.02-9.43-9.26
	c0-5.2,3.51-9.36,8.72-9.36c5.64,0,8.72,3.61,8.72,9.66c0,0.34,0,0.71-0.03,1.11H134.23z"/>
<polygon class="st12" points="156.02,25.45 159.36,13.69 165.24,13.69 159.26,31.42 152.71,31.42 146.63,13.69 152.67,13.69 "/>
<path class="st12" d="M172.07,20.45h5.74c-0.07-1.42-1.11-2.63-2.87-2.63C173.08,17.81,172.2,19.2,172.07,20.45 M171.9,24.03
	c0.13,1.59,1.65,2.94,3.75,2.94c2.13,0,3.38-1.39,3.72-1.89l3.72,2.87c-0.51,1.05-2.94,3.92-7.53,3.92c-5.85,0-9.43-4.02-9.43-9.26
	c0-5.2,3.51-9.36,8.72-9.36c5.64,0,8.72,3.61,8.72,9.66c0,0.34,0,0.71-0.03,1.11H171.9z"/>
<rect x="185.82" y="7" class="st12" width="5.64" height="24.42"/>
<path class="st12" d="M203.42,26.9c2.33,0,4.09-1.82,4.09-4.36c0-2.6-1.79-4.32-4.09-4.32c-2.33,0-3.99,1.79-3.99,4.39
	C199.43,25.17,201.12,26.9,203.42,26.9 M203.42,13.25c5.71,0,9.73,3.92,9.73,9.29c0,5.34-4.12,9.32-9.73,9.32
	c-5.64,0-9.63-3.92-9.63-9.26C193.79,17.24,197.94,13.25,203.42,13.25"/>
<path class="st12" d="M224.77,26.9c2.3,0,3.82-1.79,3.82-4.39c0-2.63-1.55-4.32-3.82-4.32c-2.43,0-3.82,1.96-3.82,4.32
	C220.95,25.31,222.54,26.9,224.77,26.9 M220.75,15.07c0.51-0.57,2.2-1.82,4.8-1.82c5.1,0,8.68,3.85,8.68,9.29
	c0,5.51-3.24,9.32-8.38,9.32c-2.7,0-4.36-1.35-4.73-1.79v7.67h-5.64V13.69h5.27V15.07z"/>
<path class="st12" d="M252.17,31.42h-5.64V20.85c0-1.59-0.78-2.53-2.13-2.53c-1.32,0-2.16,0.91-2.16,2.53v10.57h-5.64V13.69h5.51
	v1.83c0.61-1.08,2.03-2.26,4.39-2.26c2.09,0,3.65,0.88,4.59,2.33c1.08-1.38,2.74-2.33,5.03-2.33c4.09,0,6.01,2.64,6.01,6.39v11.79
	h-5.64V20.85c0-1.59-0.81-2.53-2.16-2.53c-1.32,0-2.16,1.01-2.16,2.53V31.42z"/>
<path class="st12" d="M270.31,20.45h5.74c-0.07-1.42-1.11-2.63-2.87-2.63C271.32,17.81,270.45,19.2,270.31,20.45 M270.14,24.03
	c0.13,1.59,1.65,2.94,3.75,2.94c2.13,0,3.38-1.39,3.72-1.89l3.72,2.87c-0.51,1.05-2.94,3.92-7.53,3.92c-5.85,0-9.43-4.02-9.43-9.26
	c0-5.2,3.51-9.36,8.72-9.36c5.64,0,8.72,3.61,8.72,9.66c0,0.34,0,0.71-0.03,1.11H270.14z"/>
<path class="st12" d="M294.47,20.85c0-1.65-0.98-2.53-2.33-2.53c-1.55,0-2.43,1.11-2.43,2.53v10.57h-5.64V13.69h5.51v1.83
	c0.68-1.05,2.23-2.26,4.46-2.26c5.54,0,6.08,4.73,6.08,8.34v9.83h-5.64V20.85z"/>
<path class="st12" d="M309.33,13.69h3.01v4.56h-3.01v6.52c0,1.55,1.05,1.92,2.2,1.92c0.3,0,0.57,0,0.95-0.03v4.83
	c0,0-0.74,0.2-2.16,0.2c-4.19,0-6.62-1.92-6.62-7.2v-6.25h-1.72v-4.56h1.72V9.94h5.64V13.69z"/>
<path class="st12" d="M113.85,63.63h-5.64V45.89h5.64V63.63z M107.84,41.77c0-1.79,1.35-3.07,3.14-3.07c1.79,0,3.17,1.28,3.17,3.07
	c0,1.76-1.39,3.04-3.17,3.04C109.19,44.81,107.84,43.53,107.84,41.77"/>
<path class="st12" d="M127.01,53.05c0-1.65-0.98-2.53-2.33-2.53c-1.55,0-2.43,1.11-2.43,2.53v10.57h-5.64V45.89h5.51v1.83
	c0.67-1.05,2.23-2.26,4.46-2.26c5.54,0,6.08,4.73,6.08,8.34v9.83h-5.64V53.05z"/>
<path class="st12" d="M140.97,63.63h-5.64V45.89h5.64V63.63z M134.96,41.77c0-1.79,1.35-3.07,3.14-3.07c1.79,0,3.17,1.28,3.17,3.07
	c0,1.76-1.39,3.04-3.17,3.04C136.31,44.81,134.96,43.53,134.96,41.77"/>
<path class="st12" d="M151.14,45.89h3.01v4.56h-3.01v6.52c0,1.55,1.05,1.92,2.2,1.92c0.3,0,0.57,0,0.95-0.03v4.83
	c0,0-0.74,0.2-2.16,0.2c-4.19,0-6.62-1.92-6.62-7.2v-6.25h-1.72v-4.56h1.72v-3.75h5.64V45.89z"/>
<path class="st12" d="M163.26,63.63h-5.64V45.89h5.64V63.63z M157.25,41.77c0-1.79,1.35-3.07,3.14-3.07c1.79,0,3.18,1.28,3.18,3.07
	c0,1.76-1.39,3.04-3.18,3.04C158.6,44.81,157.25,43.53,157.25,41.77"/>
<path class="st12" d="M173.53,59.74c1.35,0,2.36-0.64,2.36-1.82c0-1.22-1.05-1.89-2.4-1.89c-1.35,0-2.36,0.74-2.36,1.89
	C171.13,59.1,172.21,59.74,173.53,59.74 M172.38,52.24c1.55,0,2.77,0.37,3.41,0.64v-0.64c0-1.08-0.88-1.93-2.7-1.93
	c-1.55,0-3.07,0.44-4.46,1.12l-2.09-3.78c1.89-1.25,4.29-2.2,7.23-2.2c6.12,0,7.67,3.14,7.67,7.2v10.98h-5.03l-0.3-0.98
	c-0.91,0.91-2.2,1.42-4.02,1.42c-3.48,0-6.59-2.1-6.59-5.95C165.49,54.57,168.19,52.24,172.38,52.24"/>
<path class="st12" d="M190.78,45.89h3.01v4.56h-3.01v6.52c0,1.55,1.05,1.92,2.2,1.92c0.3,0,0.57,0,0.95-0.03v4.83
	c0,0-0.74,0.2-2.16,0.2c-4.19,0-6.62-1.92-6.62-7.2v-6.25h-1.72v-4.56h1.72v-3.75h5.64V45.89z"/>
<path class="st12" d="M202.91,63.63h-5.64V45.89h5.64V63.63z M196.89,41.77c0-1.79,1.35-3.07,3.14-3.07c1.79,0,3.17,1.28,3.17,3.07
	c0,1.76-1.39,3.04-3.17,3.04C198.24,44.81,196.89,43.53,196.89,41.77"/>
<polygon class="st12" points="214.36,57.65 217.7,45.89 223.58,45.89 217.6,63.63 211.05,63.63 204.97,45.89 211.01,45.89 "/>
<path class="st12" d="M229.73,52.65h5.74c-0.07-1.42-1.11-2.63-2.87-2.63C230.74,50.01,229.87,51.4,229.73,52.65 M229.56,56.23
	c0.13,1.59,1.65,2.94,3.75,2.94c2.13,0,3.38-1.39,3.72-1.89l3.72,2.87c-0.51,1.05-2.94,3.92-7.53,3.92c-5.85,0-9.43-4.02-9.43-9.26
	c0-5.2,3.51-9.36,8.72-9.36c5.64,0,8.72,3.61,8.72,9.66c0,0.34,0,0.71-0.03,1.11H229.56z"/>
<path class="st12" d="M242.67,61.03l3.18-3.07c0.95,0.84,2.13,1.55,3.92,1.55c1.08,0,1.59-0.34,1.59-0.98c0-2.03-8.11-1.15-8.11-7.6
	c0-3.41,2.97-5.47,6.83-5.47c3.38,0,5.3,1.62,6.35,3.04l-3.65,2.87c-0.54-0.54-1.55-1.39-2.94-1.39c-0.81,0-1.28,0.34-1.28,0.88
	c0,2.23,8.18,0.95,8.18,7.36c0,3.61-3.18,5.85-7.23,5.85C246.12,64.07,243.72,62.44,242.67,61.03"/>
</svg>
