<svg id="Layer_1" data-name="Layer 1" xmlns="http://www.w3.org/2000/svg" viewBox="0 0 172.76 172.76"><defs><style>.cls-1{fill:#1da1f2;}.cls-2{fill:#fff;}</style></defs><title>tiwtter</title><rect class="cls-1" width="172.76" height="172.76"/><path class="cls-2" d="M69.39,123.6c34.57,0,53.47-28.64,53.47-53.47,0-.82,0-1.63-.06-2.43A38.22,38.22,0,0,0,132.18,58a38,38,0,0,1-10.79,3,18.89,18.89,0,0,0,8.26-10.4,37.79,37.79,0,0,1-11.93,4.57A18.8,18.8,0,0,0,85.21,67.94a19.68,19.68,0,0,0,.48,4.3A53.4,53.4,0,0,1,47,52.6a18.78,18.78,0,0,0,5.82,25.08,18.61,18.61,0,0,1-8.52-2.35v.24A18.79,18.79,0,0,0,59.33,94a18.35,18.35,0,0,1-8.48.32A18.81,18.81,0,0,0,68.4,107.37a37.7,37.7,0,0,1-23.34,8,37,37,0,0,1-4.48-.27,53.13,53.13,0,0,0,28.81,8.45"/></svg>