<?xml version="1.0" encoding="UTF-8"?><svg id="a" xmlns="http://www.w3.org/2000/svg" viewBox="0 0 100 100"><defs><style>.b{fill:#ddd;}</style></defs><path class="b" d="M45.72,17.61l-8.55,6.56-5.97-7.78,3.89-2.98c1.29-.99,1.53-2.83,.54-4.12-.99-1.29-2.83-1.53-4.12-.54L12.84,23.07c-1.29,.99-1.53,2.83-.54,4.12,.99,1.29,2.83,1.53,4.12,.54l3.89-2.98,5.97,7.78-8.55,6.56c-1.29,.99-1.53,2.83-.54,4.12,.99,1.29,2.83,1.53,4.12,.54l5.44-4.18,27.45,35.77c1.31,1.71,3.79,2.04,5.5,.72l2.39,3.11c.66,.86,1.89,1.02,2.75,.36l1.56-1.19,8.95,11.66c.99,1.29,2.83,1.53,4.12,.54,1.29-.99,1.53-2.83,.54-4.12l-8.95-11.66,1.56-1.19c.86-.66,1.02-1.89,.36-2.75l-2.39-3.11c1.71-1.31,2.04-3.79,.72-5.5L43.86,26.45l5.44-4.18c1.29-.99,1.53-2.83,.54-4.12-.99-1.29-2.83-1.53-4.12-.54Zm11.37,35.75l-7.78,5.97-15.52-20.22,7.78-5.97,15.52,20.22Z"/></svg>
