<?xml version="1.0" encoding="UTF-8"?>
<svg width="102px" height="102px" viewBox="0 0 102 102" version="1.1" xmlns="http://www.w3.org/2000/svg" xmlns:xlink="http://www.w3.org/1999/xlink">
    <!-- Generator: Sketch 55 (78076) - https://sketchapp.com -->
    <title>arrow-down</title>
    <desc>Created with Sketch.</desc>
    <g id="Page-1" stroke="none" stroke-width="1" fill="none" fill-rule="evenodd">
        <g id="arrow-down" transform="translate(51.000000, 51.000000) rotate(-90.000000) translate(-51.000000, -51.000000) " fill="#000000" fill-rule="nonzero">
            <path d="M51.032,0.869 C23.39,0.869 0.903,23.358 0.903,51 C0.905,78.643 23.393,101.131 51.034,101.131 C78.674,101.131 101.16,78.643 101.16,51 C101.16,23.358 78.673,0.869 51.032,0.869 Z M51.034,97.131 C25.6,97.131 4.905,76.438 4.903,51 C4.903,25.563 25.596,4.869 51.032,4.869 C76.467,4.869 97.16,25.563 97.16,51 C97.16,76.438 76.468,97.131 51.034,97.131 Z M65.539,55.918 L53.034,66.694 L53.034,30.942 C53.034,29.838 52.138,28.942 51.034,28.942 C49.93,28.942 49.034,29.838 49.034,30.942 L49.034,66.694 L36.527,55.918 C35.69,55.197 34.426,55.291 33.706,56.128 C32.986,56.965 33.079,58.229 33.916,58.949 L51.034,73.697 L68.15,58.949 C68.987,58.227 69.081,56.965 68.359,56.128 C67.639,55.291 66.376,55.197 65.539,55.918 Z" id="Shape"></path>
        </g>
    </g>
</svg>