<svg xmlns="http://www.w3.org/2000/svg" width="32" height="32" viewBox="0 0 32 32"><path d="M29 30h-26c-.552 0-1 .448-1 1s.448 1 1 1h26c.552 0 1-.448 1-1s-.448-1-1-1zM16.02 28.415l12.122-12.125c1.146-1.149 1.146-3.09-.001-4.241-1.131-1.132-3.129-1.114-4.225-.018l-4.916 4.644v-12.675c0-1.654-1.346-3-3-3-1.605 0-2.961 1.374-2.961 3v12.679l-4.899-4.631c-1.135-1.132-3.104-1.134-4.242.002-1.146 1.149-1.146 3.09 0 4.239l12.122 12.126zm-10.708-14.951c.19-.189.441-.294.708-.294s.518.104.728.312l8.252 7.839v-17.321c0-.472.45-1 1-1 .552 0 1 .449 1 1.002l.045 17.323 8.268-7.862c.377-.376 1.038-.375 1.413-.001.369.371.369 1.046.001 1.416l-10.707 10.707-10.708-10.709c-.362-.363-.361-1.05 0-1.412z"/></svg>