<?xml version="1.0" encoding="UTF-8"?>
<svg width="18px" height="18px" viewBox="0 0 18 18" version="1.1" xmlns="http://www.w3.org/2000/svg" xmlns:xlink="http://www.w3.org/1999/xlink">
    <!-- Generator: Sketch 60.1 (88133) - https://sketch.com -->
    <title>information_x5F_badge</title>
    <desc>Created with Sketch.</desc>
    <g id="Page-1" stroke="none" stroke-width="1" fill="none" fill-rule="evenodd">
        <g id="info.colors-poppy-slate-blank-poppydark" transform="translate(-14.000000, -14.000000)" fill="#000000" fill-rule="nonzero">
            <g id="information_x5F_badge" transform="translate(14.000000, 14.000000)">
                <path d="M8,14 L10,14 L10,8 L8,8 L8,14 Z M8,4 L8,6 L10,6 L10,4 L8,4 Z" id="Shape"></path>
                <path d="M0,9 C0,4.027 4.027,0 9,0 L9,0 C13.971,0 17.998,4.027 18,9 L18,9 C17.998,13.971 13.971,17.998 9,18 L9,18 C4.027,17.998 0,13.971 0,9 L0,9 Z M2.115,9 C2.124,12.799 5.199,15.874 9,15.883 L9,15.883 C12.799,15.874 15.874,12.799 15.883,9 L15.883,9 C15.874,5.199 12.799,2.124 9,2.116 L9,2.116 C5.199,2.124 2.124,5.199 2.115,9 L2.115,9 Z" id="Shape"></path>
            </g>
        </g>
    </g>
</svg>