<?xml version="1.0" encoding="UTF-8"?>
<svg width="512px" height="512px" viewBox="0 0 512 512" version="1.1" xmlns="http://www.w3.org/2000/svg" xmlns:xlink="http://www.w3.org/1999/xlink">
    <!-- Generator: Sketch 64 (93537) - https://sketch.com -->
    <title>zoom</title>
    <desc>Created with Sketch.</desc>
    <g id="Page-1" stroke="none" stroke-width="1" fill="none" fill-rule="evenodd">
        <g id="zoom">
            <path d="M497.913,497.913 C479.131,516.695 448.688,516.695 429.905,497.913 L345.043,413.05 C310.154,435.432 268.913,448.767 224.384,448.767 C100.469,448.767 0,348.312 0,224.383 C0,100.454 100.469,0 224.384,0 C348.315,0 448.768,100.452 448.768,224.383 C448.768,268.897 435.416,310.154 413.05,345.059 L497.913,429.922 C516.695,448.704 516.695,479.131 497.913,497.913 Z M224.384,64.109 C135.873,64.109 64.11,135.856 64.11,224.382 C64.11,312.908 135.874,384.656 224.384,384.656 C312.909,384.656 384.657,312.908 384.657,224.382 C384.657,135.856 312.909,64.109 224.384,64.109 Z" id="Shape" fill="#000000" fill-rule="nonzero"></path>
            <line x1="226.5" y1="141" x2="226.5" y2="311" id="Path" stroke="#000000" stroke-width="30" stroke-linecap="round" stroke-linejoin="round"></line>
            <line x1="141" y1="226.5" x2="311" y2="226.5" id="Path" stroke="#000000" stroke-width="30" stroke-linecap="round" stroke-linejoin="round"></line>
        </g>
    </g>
</svg>