<?xml version="1.0" encoding="UTF-8"?>
<svg width="20px" height="19px" viewBox="0 0 20 19" version="1.1" xmlns="http://www.w3.org/2000/svg" xmlns:xlink="http://www.w3.org/1999/xlink">
    <!-- Generator: Sketch 64 (93537) - https://sketch.com -->
    <title>Shape</title>
    <desc>Created with Sketch.</desc>
    <g id="Page-1" stroke="none" stroke-width="1" fill="none" fill-rule="evenodd">
        <g id="Group" transform="translate(0.000000, -2.000000)" fill="#000000" fill-rule="nonzero">
            <path d="M19.5637548,14.0943493 C18.8654037,18.1098682 13.9381486,20.6122931 8.54532613,19.642361 C3.17190227,18.7112261 -0.630231583,14.6763086 0.0875181746,10.6607897 C0.281504596,9.55506707 0.78586929,8.56573633 1.56181497,7.73159472 C1.30963263,6.45128434 1.77520004,5.07398075 2.88092264,4.18164321 C3.54047647,3.63848124 4.33582079,3.38629889 5.09236784,3.36690025 L4.02544252,2.0089953 L4.02544252,2.0089953 C3.98664524,1.98959666 3.96724659,1.97019802 3.94784795,1.95079937 C3.75386153,1.67921838 3.79265881,1.29124554 4.04484116,1.07786048 C4.31642215,0.864475416 4.70439499,0.922671342 4.91778006,1.15545505 C4.9371787,1.17485369 4.95657734,1.21365097 4.95657734,1.25244826 L4.95657734,1.25244826 L7.1486239,3.96825815 C7.45900217,4.18164321 7.7499818,4.43382556 8.02156279,4.74420383 C8.09915736,4.80239976 8.13795464,4.87999433 8.17675193,4.9575889 C9.10788675,4.89939297 10.1166161,4.9575889 11.1059469,5.13217668 C16.4987694,6.0633115 20.2815046,10.0788304 19.5637548,14.0943493 Z M7.45900217,6.74226397 C5.9071108,7.01384496 4.5686045,7.67339879 3.63746968,8.60453361 C4.45221265,9.41927658 5.75192167,9.51626979 6.66365784,8.77912139 C7.30381303,8.2747567 7.57539402,7.49881101 7.45900217,6.74226397 Z M3.8314561,5.40856484 C3.4628819,5.7827965 3.19130091,6.27397555 3.07490906,6.81193356 C4.04484116,6.06347024 5.18936105,5.52551223 6.45027278,5.22144901 C5.63552981,4.63671205 4.60740178,4.66010152 3.8314561,5.40856484 Z M10.8149673,6.76166261 C10.1554134,6.62587212 9.47646095,6.58707483 8.83630576,6.60647348 C8.9914949,7.80918929 8.52592749,9.08949966 7.5171981,9.90424263 C6.10109722,11.0487625 4.12243573,10.9517693 2.78392943,9.80724942 C2.60934165,10.1952223 2.47355115,10.5831951 2.39595658,10.9905666 C1.85279461,14.0749507 4.74319228,17.1399361 8.8557044,17.8576859 C12.9682165,18.5754356 16.7509517,16.6937674 17.2747151,13.6481806 C17.817877,10.5637965 14.9274794,7.47941237 10.8149673,6.76166261 Z" id="Shape" transform="translate(10.000499, 10.945512) scale(-1, 1) rotate(-180.000000) translate(-10.000499, -10.945512) "></path>
        </g>
    </g>
</svg>