<?xml version="1.0" encoding="UTF-8"?>
<svg width="173px" height="173px" viewBox="0 0 173 173" version="1.1" xmlns="http://www.w3.org/2000/svg" xmlns:xlink="http://www.w3.org/1999/xlink">
    <!-- Generator: Sketch 55.2 (78181) - https://sketchapp.com -->
    <title>facebook</title>
    <desc>Created with Sketch.</desc>
    <g id="Page-1" stroke="none" stroke-width="1" fill="none" fill-rule="evenodd">
        <g id="facebook" fill-rule="nonzero">
            <rect id="Rectangle" fill="#FF0000" x="0" y="0" width="172.76" height="172.76"></rect>
            <g id="youtube-alt" transform="translate(44.000000, 55.000000)">
                <path d="M85.1397312,13.8106667 C85.1397312,13.8106667 84.3009691,7.536 81.7228509,4.77333333 C78.451141,1.152 74.7869334,1.13066667 73.1067209,0.925333333 C61.0710222,0 43.0188184,0 43.0188184,0 L42.9784933,0 C42.9784933,0 24.9262895,0 12.8932791,0.925333333 C11.2130666,1.13066667 7.55154736,1.152 4.27714911,4.77333333 C1.70171929,7.536 0.860268834,13.8106667 0.860268834,13.8106667 C0.860268834,13.8106667 0,21.1733333 0,28.536 L0,35.4373333 C0,42.8053333 0.860268834,50.1653333 0.860268834,50.1653333 C0.860268834,50.1653333 1.69903095,56.4373333 4.27714911,59.1946667 C7.55154736,62.816 11.8448265,62.7066667 13.7589247,63.0853333 C20.638387,63.784 43,64 43,64 C43,64 61.0710222,63.968 73.1067209,63.0533333 C74.7869334,62.84 78.451141,62.8186667 81.7228509,59.1973333 C84.2982807,56.44 85.1397312,50.168 85.1397312,50.168 C85.1397312,50.168 86,42.8053333 86,35.44 L86,28.5386667 C86,21.1733333 85.1397312,13.8106667 85.1397312,13.8106667 Z" id="Path" fill="#FFFFFF"></path>
                <polygon id="Path" fill="#FF0000" points="32 16 32 48 59 32"></polygon>
            </g>
        </g>
    </g>
</svg>